<mxfile host="app.diagrams.net" modified="2023-05-11T01:23:44.769Z" agent="Mozilla/5.0 (Windows NT 10.0; Win64; x64) AppleWebKit/537.36 (KHTML, like Gecko) Chrome/112.0.0.0 Safari/537.36" etag="QY0CHDK1EQjmmG5mTewb" version="21.2.9" type="device">
  <diagram name="Page-1" id="ZW6VHrHApzmamMZP3Clx">
    <mxGraphModel dx="1900" dy="573" grid="1" gridSize="10" guides="1" tooltips="1" connect="1" arrows="1" fold="1" page="1" pageScale="1" pageWidth="850" pageHeight="1100" math="0" shadow="0">
      <root>
        <mxCell id="0" />
        <mxCell id="1" parent="0" />
        <mxCell id="bAA4uuTKDm3Xis8zFXQM-1" value="Mail" style="swimlane;fontStyle=1;align=center;verticalAlign=top;childLayout=stackLayout;horizontal=1;startSize=26;horizontalStack=0;resizeParent=1;resizeParentMax=0;resizeLast=0;collapsible=1;marginBottom=0;whiteSpace=wrap;html=1;fillColor=#f8cecc;strokeColor=#b85450;" vertex="1" parent="1">
          <mxGeometry x="230" y="192" width="160" height="140" as="geometry" />
        </mxCell>
        <mxCell id="bAA4uuTKDm3Xis8zFXQM-2" value="- origen: String&lt;br&gt;- destino: String&lt;br&gt;- asunto: String" style="text;strokeColor=none;fillColor=none;align=left;verticalAlign=top;spacingLeft=4;spacingRight=4;overflow=hidden;rotatable=0;points=[[0,0.5],[1,0.5]];portConstraint=eastwest;whiteSpace=wrap;html=1;" vertex="1" parent="bAA4uuTKDm3Xis8zFXQM-1">
          <mxGeometry y="26" width="160" height="64" as="geometry" />
        </mxCell>
        <mxCell id="bAA4uuTKDm3Xis8zFXQM-3" value="" style="line;strokeWidth=1;fillColor=none;align=left;verticalAlign=middle;spacingTop=-1;spacingLeft=3;spacingRight=3;rotatable=0;labelPosition=right;points=[];portConstraint=eastwest;strokeColor=inherit;" vertex="1" parent="bAA4uuTKDm3Xis8zFXQM-1">
          <mxGeometry y="90" width="160" height="8" as="geometry" />
        </mxCell>
        <mxCell id="bAA4uuTKDm3Xis8zFXQM-4" value="//constructor&lt;br&gt;//getters y setters" style="text;strokeColor=none;fillColor=none;align=left;verticalAlign=top;spacingLeft=4;spacingRight=4;overflow=hidden;rotatable=0;points=[[0,0.5],[1,0.5]];portConstraint=eastwest;whiteSpace=wrap;html=1;" vertex="1" parent="bAA4uuTKDm3Xis8zFXQM-1">
          <mxGeometry y="98" width="160" height="42" as="geometry" />
        </mxCell>
        <mxCell id="bAA4uuTKDm3Xis8zFXQM-5" value="CompruebaMail" style="swimlane;fontStyle=1;align=center;verticalAlign=top;childLayout=stackLayout;horizontal=1;startSize=26;horizontalStack=0;resizeParent=1;resizeParentMax=0;resizeLast=0;collapsible=1;marginBottom=0;whiteSpace=wrap;html=1;fillColor=#e1d5e7;strokeColor=#9673a6;" vertex="1" parent="1">
          <mxGeometry x="520" y="207" width="220" height="110" as="geometry" />
        </mxCell>
        <mxCell id="bAA4uuTKDm3Xis8zFXQM-6" value="//atributo tipo ManejadorMail" style="text;strokeColor=none;fillColor=none;align=left;verticalAlign=top;spacingLeft=4;spacingRight=4;overflow=hidden;rotatable=0;points=[[0,0.5],[1,0.5]];portConstraint=eastwest;whiteSpace=wrap;html=1;" vertex="1" parent="bAA4uuTKDm3Xis8zFXQM-5">
          <mxGeometry y="26" width="220" height="26" as="geometry" />
        </mxCell>
        <mxCell id="bAA4uuTKDm3Xis8zFXQM-7" value="" style="line;strokeWidth=1;fillColor=none;align=left;verticalAlign=middle;spacingTop=-1;spacingLeft=3;spacingRight=3;rotatable=0;labelPosition=right;points=[];portConstraint=eastwest;strokeColor=inherit;" vertex="1" parent="bAA4uuTKDm3Xis8zFXQM-5">
          <mxGeometry y="52" width="220" height="8" as="geometry" />
        </mxCell>
        <mxCell id="bAA4uuTKDm3Xis8zFXQM-8" value="+ procesarMail(mail: Mail): String" style="text;strokeColor=none;fillColor=none;align=left;verticalAlign=top;spacingLeft=4;spacingRight=4;overflow=hidden;rotatable=0;points=[[0,0.5],[1,0.5]];portConstraint=eastwest;whiteSpace=wrap;html=1;" vertex="1" parent="bAA4uuTKDm3Xis8zFXQM-5">
          <mxGeometry y="60" width="220" height="50" as="geometry" />
        </mxCell>
        <mxCell id="bAA4uuTKDm3Xis8zFXQM-9" value="Use" style="endArrow=open;endSize=12;dashed=1;html=1;rounded=0;entryX=1.01;entryY=0.34;entryDx=0;entryDy=0;entryPerimeter=0;exitX=-0.011;exitY=0.26;exitDx=0;exitDy=0;exitPerimeter=0;" edge="1" parent="1" source="bAA4uuTKDm3Xis8zFXQM-6" target="bAA4uuTKDm3Xis8zFXQM-2">
          <mxGeometry width="160" relative="1" as="geometry">
            <mxPoint x="390" y="300" as="sourcePoint" />
            <mxPoint x="550" y="300" as="targetPoint" />
          </mxGeometry>
        </mxCell>
        <mxCell id="bAA4uuTKDm3Xis8zFXQM-10" value="&amp;lt;&amp;lt;abstract&amp;gt;&amp;gt;&lt;br&gt;ManejadorMail" style="swimlane;fontStyle=1;align=center;verticalAlign=top;childLayout=stackLayout;horizontal=1;startSize=40;horizontalStack=0;resizeParent=1;resizeParentMax=0;resizeLast=0;collapsible=1;marginBottom=0;whiteSpace=wrap;html=1;fillColor=#ffe6cc;strokeColor=#d79b00;" vertex="1" parent="1">
          <mxGeometry x="150" y="390" width="250" height="114" as="geometry" />
        </mxCell>
        <mxCell id="bAA4uuTKDm3Xis8zFXQM-11" value="//aca debemos poner el atributo de si mismo" style="text;strokeColor=none;fillColor=none;align=left;verticalAlign=top;spacingLeft=4;spacingRight=4;overflow=hidden;rotatable=0;points=[[0,0.5],[1,0.5]];portConstraint=eastwest;whiteSpace=wrap;html=1;" vertex="1" parent="bAA4uuTKDm3Xis8zFXQM-10">
          <mxGeometry y="40" width="250" height="40" as="geometry" />
        </mxCell>
        <mxCell id="bAA4uuTKDm3Xis8zFXQM-12" value="" style="line;strokeWidth=1;fillColor=none;align=left;verticalAlign=middle;spacingTop=-1;spacingLeft=3;spacingRight=3;rotatable=0;labelPosition=right;points=[];portConstraint=eastwest;strokeColor=inherit;" vertex="1" parent="bAA4uuTKDm3Xis8zFXQM-10">
          <mxGeometry y="80" width="250" height="8" as="geometry" />
        </mxCell>
        <mxCell id="bAA4uuTKDm3Xis8zFXQM-13" value="+ abstract procesarMail(mail: Mail): String" style="text;strokeColor=none;fillColor=none;align=left;verticalAlign=top;spacingLeft=4;spacingRight=4;overflow=hidden;rotatable=0;points=[[0,0.5],[1,0.5]];portConstraint=eastwest;whiteSpace=wrap;html=1;" vertex="1" parent="bAA4uuTKDm3Xis8zFXQM-10">
          <mxGeometry y="88" width="250" height="26" as="geometry" />
        </mxCell>
        <mxCell id="bAA4uuTKDm3Xis8zFXQM-34" value="" style="endArrow=open;endFill=1;endSize=12;html=1;rounded=0;entryX=1;entryY=0.25;entryDx=0;entryDy=0;exitX=1;exitY=0.5;exitDx=0;exitDy=0;" edge="1" parent="bAA4uuTKDm3Xis8zFXQM-10" source="bAA4uuTKDm3Xis8zFXQM-11" target="bAA4uuTKDm3Xis8zFXQM-10">
          <mxGeometry width="160" relative="1" as="geometry">
            <mxPoint x="240" y="60" as="sourcePoint" />
            <mxPoint x="400" y="60" as="targetPoint" />
            <Array as="points">
              <mxPoint x="290" y="60" />
              <mxPoint x="290" y="30" />
            </Array>
          </mxGeometry>
        </mxCell>
        <mxCell id="bAA4uuTKDm3Xis8zFXQM-14" value="ManejadorGerencial" style="swimlane;fontStyle=1;align=center;verticalAlign=top;childLayout=stackLayout;horizontal=1;startSize=26;horizontalStack=0;resizeParent=1;resizeParentMax=0;resizeLast=0;collapsible=1;marginBottom=0;whiteSpace=wrap;html=1;fillColor=#fff2cc;strokeColor=#d6b656;" vertex="1" parent="1">
          <mxGeometry x="-190" y="600" width="190" height="60" as="geometry" />
        </mxCell>
        <mxCell id="bAA4uuTKDm3Xis8zFXQM-16" value="" style="line;strokeWidth=1;fillColor=none;align=left;verticalAlign=middle;spacingTop=-1;spacingLeft=3;spacingRight=3;rotatable=0;labelPosition=right;points=[];portConstraint=eastwest;strokeColor=inherit;" vertex="1" parent="bAA4uuTKDm3Xis8zFXQM-14">
          <mxGeometry y="26" width="190" height="8" as="geometry" />
        </mxCell>
        <mxCell id="bAA4uuTKDm3Xis8zFXQM-17" value="+ procesarMail(mail: Mail): String" style="text;strokeColor=none;fillColor=none;align=left;verticalAlign=top;spacingLeft=4;spacingRight=4;overflow=hidden;rotatable=0;points=[[0,0.5],[1,0.5]];portConstraint=eastwest;whiteSpace=wrap;html=1;" vertex="1" parent="bAA4uuTKDm3Xis8zFXQM-14">
          <mxGeometry y="34" width="190" height="26" as="geometry" />
        </mxCell>
        <mxCell id="bAA4uuTKDm3Xis8zFXQM-18" value="ManejadorTecnico" style="swimlane;fontStyle=1;align=center;verticalAlign=top;childLayout=stackLayout;horizontal=1;startSize=26;horizontalStack=0;resizeParent=1;resizeParentMax=0;resizeLast=0;collapsible=1;marginBottom=0;whiteSpace=wrap;html=1;fillColor=#fff2cc;strokeColor=#d6b656;" vertex="1" parent="1">
          <mxGeometry x="50" y="600" width="200" height="60" as="geometry" />
        </mxCell>
        <mxCell id="bAA4uuTKDm3Xis8zFXQM-20" value="" style="line;strokeWidth=1;fillColor=none;align=left;verticalAlign=middle;spacingTop=-1;spacingLeft=3;spacingRight=3;rotatable=0;labelPosition=right;points=[];portConstraint=eastwest;strokeColor=inherit;" vertex="1" parent="bAA4uuTKDm3Xis8zFXQM-18">
          <mxGeometry y="26" width="200" height="8" as="geometry" />
        </mxCell>
        <mxCell id="bAA4uuTKDm3Xis8zFXQM-21" value="+ procesarMail(mail: Mail): String" style="text;strokeColor=none;fillColor=none;align=left;verticalAlign=top;spacingLeft=4;spacingRight=4;overflow=hidden;rotatable=0;points=[[0,0.5],[1,0.5]];portConstraint=eastwest;whiteSpace=wrap;html=1;" vertex="1" parent="bAA4uuTKDm3Xis8zFXQM-18">
          <mxGeometry y="34" width="200" height="26" as="geometry" />
        </mxCell>
        <mxCell id="bAA4uuTKDm3Xis8zFXQM-22" value="ManejadorComercial" style="swimlane;fontStyle=1;align=center;verticalAlign=top;childLayout=stackLayout;horizontal=1;startSize=26;horizontalStack=0;resizeParent=1;resizeParentMax=0;resizeLast=0;collapsible=1;marginBottom=0;whiteSpace=wrap;html=1;fillColor=#fff2cc;strokeColor=#d6b656;" vertex="1" parent="1">
          <mxGeometry x="300" y="600" width="190" height="60" as="geometry" />
        </mxCell>
        <mxCell id="bAA4uuTKDm3Xis8zFXQM-24" value="" style="line;strokeWidth=1;fillColor=none;align=left;verticalAlign=middle;spacingTop=-1;spacingLeft=3;spacingRight=3;rotatable=0;labelPosition=right;points=[];portConstraint=eastwest;strokeColor=inherit;" vertex="1" parent="bAA4uuTKDm3Xis8zFXQM-22">
          <mxGeometry y="26" width="190" height="8" as="geometry" />
        </mxCell>
        <mxCell id="bAA4uuTKDm3Xis8zFXQM-25" value="+ procesarMail(mail: Mail): String" style="text;strokeColor=none;fillColor=none;align=left;verticalAlign=top;spacingLeft=4;spacingRight=4;overflow=hidden;rotatable=0;points=[[0,0.5],[1,0.5]];portConstraint=eastwest;whiteSpace=wrap;html=1;" vertex="1" parent="bAA4uuTKDm3Xis8zFXQM-22">
          <mxGeometry y="34" width="190" height="26" as="geometry" />
        </mxCell>
        <mxCell id="bAA4uuTKDm3Xis8zFXQM-26" value="ManejadorSpam" style="swimlane;fontStyle=1;align=center;verticalAlign=top;childLayout=stackLayout;horizontal=1;startSize=26;horizontalStack=0;resizeParent=1;resizeParentMax=0;resizeLast=0;collapsible=1;marginBottom=0;whiteSpace=wrap;html=1;fillColor=#fff2cc;strokeColor=#d6b656;" vertex="1" parent="1">
          <mxGeometry x="535" y="590" width="190" height="60" as="geometry" />
        </mxCell>
        <mxCell id="bAA4uuTKDm3Xis8zFXQM-28" value="" style="line;strokeWidth=1;fillColor=none;align=left;verticalAlign=middle;spacingTop=-1;spacingLeft=3;spacingRight=3;rotatable=0;labelPosition=right;points=[];portConstraint=eastwest;strokeColor=inherit;" vertex="1" parent="bAA4uuTKDm3Xis8zFXQM-26">
          <mxGeometry y="26" width="190" height="8" as="geometry" />
        </mxCell>
        <mxCell id="bAA4uuTKDm3Xis8zFXQM-29" value="+ procesarMail(mail: Mail): String" style="text;strokeColor=none;fillColor=none;align=left;verticalAlign=top;spacingLeft=4;spacingRight=4;overflow=hidden;rotatable=0;points=[[0,0.5],[1,0.5]];portConstraint=eastwest;whiteSpace=wrap;html=1;" vertex="1" parent="bAA4uuTKDm3Xis8zFXQM-26">
          <mxGeometry y="34" width="190" height="26" as="geometry" />
        </mxCell>
        <mxCell id="bAA4uuTKDm3Xis8zFXQM-30" value="Extends" style="endArrow=block;endSize=16;endFill=0;html=1;rounded=0;exitX=0.5;exitY=0;exitDx=0;exitDy=0;entryX=-0.005;entryY=0.208;entryDx=0;entryDy=0;entryPerimeter=0;" edge="1" parent="1" source="bAA4uuTKDm3Xis8zFXQM-14" target="bAA4uuTKDm3Xis8zFXQM-13">
          <mxGeometry width="160" relative="1" as="geometry">
            <mxPoint x="390" y="510" as="sourcePoint" />
            <mxPoint x="550" y="510" as="targetPoint" />
          </mxGeometry>
        </mxCell>
        <mxCell id="bAA4uuTKDm3Xis8zFXQM-31" value="Extends" style="endArrow=block;endSize=16;endFill=0;html=1;rounded=0;entryX=0.27;entryY=1.008;entryDx=0;entryDy=0;entryPerimeter=0;exitX=0.5;exitY=0;exitDx=0;exitDy=0;" edge="1" parent="1" source="bAA4uuTKDm3Xis8zFXQM-18" target="bAA4uuTKDm3Xis8zFXQM-13">
          <mxGeometry x="-0.523" y="-2" width="160" relative="1" as="geometry">
            <mxPoint x="298" y="550" as="sourcePoint" />
            <mxPoint x="254" y="500" as="targetPoint" />
            <mxPoint as="offset" />
          </mxGeometry>
        </mxCell>
        <mxCell id="bAA4uuTKDm3Xis8zFXQM-32" value="Extends" style="endArrow=block;endSize=16;endFill=0;html=1;rounded=0;exitX=0.409;exitY=-0.009;exitDx=0;exitDy=0;exitPerimeter=0;entryX=0.747;entryY=1.192;entryDx=0;entryDy=0;entryPerimeter=0;" edge="1" parent="1" source="bAA4uuTKDm3Xis8zFXQM-22" target="bAA4uuTKDm3Xis8zFXQM-13">
          <mxGeometry width="160" relative="1" as="geometry">
            <mxPoint x="160" y="580" as="sourcePoint" />
            <mxPoint x="380" y="510" as="targetPoint" />
          </mxGeometry>
        </mxCell>
        <mxCell id="bAA4uuTKDm3Xis8zFXQM-33" value="Extends" style="endArrow=block;endSize=16;endFill=0;html=1;rounded=0;exitX=0.371;exitY=0.004;exitDx=0;exitDy=0;entryX=1.014;entryY=0.301;entryDx=0;entryDy=0;entryPerimeter=0;exitPerimeter=0;" edge="1" parent="1" source="bAA4uuTKDm3Xis8zFXQM-26" target="bAA4uuTKDm3Xis8zFXQM-13">
          <mxGeometry width="160" relative="1" as="geometry">
            <mxPoint x="170" y="590" as="sourcePoint" />
            <mxPoint x="274" y="520" as="targetPoint" />
          </mxGeometry>
        </mxCell>
        <mxCell id="bAA4uuTKDm3Xis8zFXQM-35" value="" style="endArrow=open;endFill=1;endSize=12;html=1;rounded=0;entryX=1.009;entryY=0.071;entryDx=0;entryDy=0;entryPerimeter=0;" edge="1" parent="1" target="bAA4uuTKDm3Xis8zFXQM-10">
          <mxGeometry width="160" relative="1" as="geometry">
            <mxPoint x="550" y="320" as="sourcePoint" />
            <mxPoint x="550" y="370" as="targetPoint" />
            <Array as="points">
              <mxPoint x="550" y="398" />
            </Array>
          </mxGeometry>
        </mxCell>
      </root>
    </mxGraphModel>
  </diagram>
</mxfile>
